<svg version="1.1" xmlns="http://www.w3.org/2000/svg" viewBox="0 0 727.476690315906 1522.881654050253" width="727.476690315906" height="1522.881654050253">
  <!-- svg-source:excalidraw -->
  
  <defs>
    <style class="style-fonts">
      @font-face {
        font-family: "Virgil";
        src: url("https://excalidraw.com/Virgil.woff2");
      }
      @font-face {
        font-family: "Cascadia";
        src: url("https://excalidraw.com/Cascadia.woff2");
      }
      @font-face {
        font-family: "Assistant";
        src: url("https://excalidraw.com/Assistant-Regular.woff2");
      }
    </style>
    
  </defs>
  <rect x="0" y="0" width="727.476690315906" height="1522.881654050253" fill="#ffffff"></rect><g stroke-linecap="round" transform="translate(303.6246643066406 10) rotate(0 140.1873779296875 121.25481033325195)"><path d="M115.53 0.96 C129.29 -3, 146.98 -0.59, 162.03 1.64 C177.09 3.88, 192.54 8.44, 205.87 14.36 C219.21 20.29, 231.73 27.67, 242.06 37.2 C252.39 46.72, 261.59 59.24, 267.86 71.5 C274.12 83.76, 278.35 97.75, 279.65 110.76 C280.95 123.77, 279.18 136.92, 275.68 149.55 C272.17 162.18, 266.57 175.55, 258.63 186.55 C250.68 197.55, 240.05 207.23, 228.02 215.56 C215.98 223.88, 200.84 232.03, 186.43 236.49 C172.02 240.95, 156.61 242.43, 141.59 242.32 C126.56 242.21, 110.83 239.83, 96.3 235.82 C81.77 231.81, 66.35 226.25, 54.4 218.25 C42.45 210.25, 32.92 198.85, 24.6 187.82 C16.29 176.78, 8.51 164.68, 4.52 152.03 C0.52 139.39, -0.37 124.91, 0.66 111.94 C1.68 98.97, 4.83 86.33, 10.69 74.23 C16.55 62.14, 25.72 49.13, 35.83 39.37 C45.94 29.61, 56.45 22.18, 71.35 15.66 C86.26 9.14, 114.58 2.44, 125.28 0.24 C135.98 -1.96, 135.38 0.22, 135.56 2.44 M181.36 4.95 C195.48 6.68, 209.51 15.44, 222.1 23.13 C234.68 30.83, 247.78 40.14, 256.86 51.14 C265.95 62.13, 272.94 76.41, 276.61 89.12 C280.27 101.83, 280.16 114.16, 278.86 127.4 C277.55 140.65, 274.4 156.21, 268.77 168.57 C263.15 180.93, 254.92 191.86, 245.1 201.58 C235.27 211.29, 223.04 220.55, 209.83 226.86 C196.62 233.16, 180.76 236.93, 165.82 239.41 C150.87 241.88, 135.2 243.35, 120.16 241.7 C105.12 240.06, 88.98 235.71, 75.56 229.54 C62.14 223.37, 50.02 214.21, 39.62 204.7 C29.22 195.19, 19.82 184.42, 13.16 172.47 C6.49 160.52, 1.38 146.14, -0.37 132.99 C-2.11 119.84, -0.85 106.26, 2.68 93.56 C6.2 80.87, 12.7 67.94, 20.78 56.84 C28.87 45.75, 39.5 35.32, 51.19 27.01 C62.88 18.71, 76.45 11.71, 90.93 7.02 C105.4 2.33, 122.54 -1.13, 138.02 -1.12 C153.5 -1.11, 176.59 5.51, 183.81 7.09 C191.03 8.68, 182.13 6.68, 181.36 8.39" stroke="#1e1e1e" stroke-width="1" fill="none"></path></g><g transform="translate(392.9703063964844 78.07820129394531) rotate(0 48.752490418112814 34.77342987060547)"><text x="0" y="55.63866895566814" font-family="Helvetica, Segoe UI Emoji" font-size="60.47553020974863px" fill="#1e1e1e" text-anchor="start" style="white-space: pre;" direction="ltr" dominant-baseline="alphabetic">eye</text></g><g transform="translate(382.7019348144531 152.26547241210938) rotate(0 62.167747497558594 34.773429870605455)"><text x="0" y="55.63866895566814" font-family="Helvetica, Segoe UI Emoji" font-size="60.47553020974863px" fill="#1e1e1e" text-anchor="start" style="white-space: pre;" direction="ltr" dominant-baseline="alphabetic">eat()</text></g><g transform="translate(412.1875305175781 267.8258361816406) rotate(0 30.56640625 11.5)"><text x="0" y="18.400390625" font-family="Helvetica, Segoe UI Emoji" font-size="20px" fill="#1e1e1e" text-anchor="start" style="white-space: pre;" direction="ltr" dominant-baseline="alphabetic">Animal</text></g><g stroke-linecap="round" transform="translate(10 205.302001953125) rotate(0 75.98216247558594 73.13961791992188)"><path d="M59.17 1.4 C69.05 -1.87, 83.39 -1.26, 94.24 1.35 C105.08 3.95, 115.79 10.19, 124.25 17.03 C132.71 23.86, 140.23 32.81, 145 42.37 C149.77 51.92, 153.01 63.64, 152.87 74.35 C152.73 85.06, 149.35 97.13, 144.15 106.62 C138.96 116.1, 130.55 124.92, 121.71 131.25 C112.87 137.58, 101.69 142.34, 91.12 144.6 C80.55 146.87, 68.7 147.43, 58.3 144.82 C47.89 142.22, 37.34 135.85, 28.69 128.99 C20.04 122.12, 11.28 112.99, 6.42 103.61 C1.55 94.23, -0.68 83.08, -0.49 72.68 C-0.3 62.28, 2.5 50.89, 7.54 41.19 C12.58 31.48, 19.49 21.3, 29.76 14.44 C40.04 7.59, 61.12 2.17, 69.19 0.05 C77.26 -2.07, 77.92 0.49, 78.18 1.73 M60.34 1.69 C69.97 -1.82, 82.4 -1.01, 92.9 1.21 C103.39 3.42, 114.5 8.34, 123.32 14.97 C132.15 21.61, 140.95 31.23, 145.84 41.02 C150.73 50.81, 152.85 62.97, 152.66 73.71 C152.47 84.45, 149.54 95.81, 144.7 105.44 C139.86 115.06, 132.34 124.73, 123.64 131.48 C114.94 138.22, 103.34 143.95, 92.52 145.92 C81.69 147.9, 69.52 146.16, 58.7 143.32 C47.87 140.48, 36.01 135.41, 27.55 128.87 C19.1 122.34, 12.56 113.43, 7.96 104.09 C3.35 94.76, 0.15 83.36, -0.06 72.87 C-0.27 62.39, 1.83 50.59, 6.71 41.17 C11.6 31.76, 20.63 23.12, 29.24 16.4 C37.85 9.68, 53.07 2.82, 58.38 0.83 C63.68 -1.16, 60.74 3.3, 61.05 4.46" stroke="none" stroke-width="0" fill="#a5d8ff"></path><path d="M67.7 -0.27 C78.11 -2.52, 92.1 0.16, 102.52 3.75 C112.94 7.35, 122.79 13.72, 130.23 21.3 C137.68 28.88, 143.57 39.07, 147.2 49.26 C150.83 59.45, 153.1 71.78, 152.01 82.44 C150.92 93.11, 146.82 104.4, 140.66 113.23 C134.5 122.05, 124.66 129.95, 115.06 135.39 C105.46 140.83, 93.92 144.73, 83.06 145.87 C72.21 147.01, 60.19 145.94, 49.93 142.23 C39.68 138.52, 29.28 131.13, 21.53 123.62 C13.78 116.11, 6.98 107.12, 3.43 97.17 C-0.11 87.21, -1.07 74.4, 0.26 63.88 C1.59 53.37, 5.56 42.95, 11.41 34.1 C17.27 25.25, 24 16.36, 35.39 10.77 C46.79 5.18, 70.77 1.8, 79.77 0.56 C88.77 -0.68, 89.62 2.28, 89.38 3.31 M69.71 -0.01 C79.92 -1.72, 92.3 2.49, 102.82 6.62 C113.33 10.75, 124.99 17.19, 132.81 24.78 C140.62 32.37, 146.54 42.1, 149.69 52.16 C152.85 62.23, 153.7 74.75, 151.76 85.16 C149.82 95.58, 144.62 106.03, 138.05 114.65 C131.47 123.27, 121.93 131.59, 112.31 136.87 C102.69 142.16, 91.25 145.77, 80.33 146.35 C69.42 146.93, 56.72 144.25, 46.82 140.33 C36.93 136.42, 28.11 130.71, 20.98 122.86 C13.84 115, 7.35 103.54, 4 93.2 C0.64 82.86, -0.89 70.87, 0.87 60.8 C2.62 50.74, 8.4 41.2, 14.53 32.81 C20.66 24.42, 28.08 15.84, 37.65 10.46 C47.22 5.09, 66.6 1.87, 71.95 0.56 C77.29 -0.75, 69.75 1.38, 69.72 2.62" stroke="#1e1e1e" stroke-width="1" fill="none"></path></g><g transform="translate(80.53897094726562 367.89532470703125) rotate(0 18.3447265625 11.5)"><text x="0" y="18.400390625" font-family="Helvetica, Segoe UI Emoji" font-size="20px" fill="#1e1e1e" text-anchor="start" style="white-space: pre;" direction="ltr" dominant-baseline="alphabetic">Dog</text></g><g stroke-linecap="round"><g transform="translate(164.51053206967873 254.95432227024784) rotate(0 79.55158325086401 -29.781359358198003)"><path d="M0.1 -1.05 C21.17 -4.31, 100.87 -10.8, 127.3 -20.73 C153.73 -30.66, 153.19 -54.27, 158.67 -60.62 M-1.31 1.02 C19.5 -2.49, 99.69 -12.33, 126.19 -22.48 C152.69 -32.62, 152.48 -53.43, 157.68 -59.86" stroke="#1e1e1e" stroke-width="1" fill="none"></path></g><g transform="translate(164.51053206967873 254.95432227024784) rotate(0 79.55158325086401 -29.781359358198003)"><path d="M155.77 -35.21 C154.98 -44.97, 158.63 -54.41, 157.68 -59.86 M155.77 -35.21 C156.46 -40.83, 156.08 -45.82, 157.68 -59.86" stroke="#1e1e1e" stroke-width="1" fill="none"></path></g><g transform="translate(164.51053206967873 254.95432227024784) rotate(0 79.55158325086401 -29.781359358198003)"><path d="M140.37 -42.21 C145.29 -49.35, 154.72 -56.18, 157.68 -59.86 M140.37 -42.21 C144.39 -46.44, 147.27 -49.94, 157.68 -59.86" stroke="#1e1e1e" stroke-width="1" fill="none"></path></g></g><mask></mask><g stroke-linecap="round" transform="translate(208.11300659179688 293.9832458496094) rotate(0 75.98216247558594 73.13961791992188)"><path d="M85.72 1.36 C96.24 1.3, 107.63 6, 116.92 11.47 C126.22 16.94, 135.56 25.15, 141.48 34.16 C147.4 43.17, 151.54 54.86, 152.45 65.52 C153.36 76.18, 150.84 88.26, 146.94 98.11 C143.04 107.96, 136.82 117.38, 129.04 124.62 C121.26 131.86, 110.54 138.2, 100.27 141.56 C89.99 144.92, 78.13 145.94, 67.4 144.78 C56.67 143.62, 45.27 140, 35.91 134.59 C26.55 129.18, 17.2 121.36, 11.22 112.31 C5.23 103.26, 1.23 90.77, -0.01 80.3 C-1.25 69.82, -0.08 59.43, 3.79 49.47 C7.66 39.51, 15.4 28.26, 23.19 20.54 C30.97 12.82, 39.76 6.31, 50.5 3.16 C61.23 0.02, 81.05 1.8, 87.6 1.66 C94.16 1.51, 90.05 1.2, 89.84 2.31 M63.11 1.58 C73.22 -1.35, 84.77 -0.7, 95.13 2.31 C105.49 5.33, 116.69 12.59, 125.29 19.66 C133.89 26.74, 142.39 35.4, 146.74 44.76 C151.1 54.13, 151.97 65.28, 151.41 75.84 C150.85 86.4, 148.32 98.6, 143.4 108.1 C138.49 117.6, 130.73 126.6, 121.92 132.82 C113.1 139.05, 101.35 143.52, 90.52 145.44 C79.7 147.37, 67.62 147.05, 56.96 144.35 C46.3 141.65, 35.29 136.32, 26.57 129.23 C17.84 122.15, 9.24 111.84, 4.61 101.86 C-0.02 91.87, -2.13 79.98, -1.22 69.31 C-0.32 58.63, 4.83 46.81, 10.05 37.8 C15.28 28.79, 21.24 21.23, 30.14 15.25 C39.05 9.27, 58.13 4.1, 63.48 1.92 C68.84 -0.26, 62.23 0.91, 62.27 2.17" stroke="none" stroke-width="0" fill="#b2f2bb"></path><path d="M67.12 1.44 C77.35 -0.85, 90.61 0.27, 100.87 3.62 C111.13 6.98, 120.98 14.3, 128.69 21.58 C136.39 28.87, 143.41 37.56, 147.11 47.33 C150.81 57.1, 152.02 69.71, 150.87 80.21 C149.71 90.72, 145.75 101.32, 140.17 110.36 C134.59 119.4, 126.55 128.63, 117.41 134.45 C108.27 140.28, 96.12 143.84, 85.33 145.32 C74.53 146.8, 62.97 146.68, 52.64 143.33 C42.31 139.98, 31.46 132.7, 23.35 125.23 C15.24 117.75, 7.71 108.51, 3.99 98.48 C0.28 88.44, -0.08 75.66, 1.08 65.02 C2.23 54.38, 5.42 43.45, 10.91 34.63 C16.39 25.82, 24.46 17.84, 34 12.12 C43.53 6.39, 62.11 1.9, 68.11 0.28 C74.12 -1.33, 69.83 1.18, 70.04 2.43 M100.88 4.8 C110.98 6.94, 122.94 13.53, 130.59 20.86 C138.25 28.2, 143.54 38.3, 146.83 48.79 C150.12 59.29, 151.39 73.21, 150.35 83.81 C149.31 94.42, 146.25 103.8, 140.61 112.42 C134.97 121.04, 126.18 129.85, 116.52 135.53 C106.87 141.21, 93.92 145.44, 82.67 146.49 C71.42 147.54, 59.24 145.83, 49 141.84 C38.76 137.85, 28.86 129.9, 21.23 122.53 C13.59 115.16, 6.83 107.47, 3.17 97.62 C-0.48 87.77, -2.12 74.15, -0.69 63.42 C0.73 52.69, 5.33 42.15, 11.72 33.25 C18.11 24.34, 28.34 15.4, 37.65 9.98 C46.96 4.55, 56.88 1.59, 67.6 0.72 C78.31 -0.15, 96.04 3.78, 101.94 4.76 C107.83 5.75, 103.51 5.54, 102.97 6.62" stroke="#1e1e1e" stroke-width="1" fill="none"></path></g><g transform="translate(260.5389709472656 452.9353117423584) rotate(0 15.5615234375 11.5)"><text x="0" y="18.400390625" font-family="Helvetica, Segoe UI Emoji" font-size="20px" fill="#1e1e1e" text-anchor="start" style="white-space: pre;" direction="ltr" dominant-baseline="alphabetic">Cat</text></g><g stroke-linecap="round"><g transform="translate(334.7091979980469 303.9787382560303) rotate(0 22.271148681640625 -32.818382263183594)"><path d="M-0.52 1.06 C3.66 -1.74, 18.56 -5.78, 26.07 -16.97 C33.58 -28.16, 41.55 -57.91, 44.53 -66.09 M1.41 0.58 C5.41 -2.58, 18.45 -7.87, 25.5 -18.8 C32.56 -29.73, 40.69 -57.28, 43.75 -65" stroke="#1e1e1e" stroke-width="1" fill="none"></path></g><g transform="translate(334.7091979980469 303.9787382560303) rotate(0 22.271148681640625 -32.818382263183594)"><path d="M44.07 -40.01 C45.75 -48.3, 44.78 -59.05, 43.75 -65 M44.07 -40.01 C43.22 -45.81, 43.43 -52.67, 43.75 -65" stroke="#1e1e1e" stroke-width="1" fill="none"></path></g><g transform="translate(334.7091979980469 303.9787382560303) rotate(0 22.271148681640625 -32.818382263183594)"><path d="M27.93 -45.65 C35.74 -51.73, 40.91 -60.33, 43.75 -65 M27.93 -45.65 C31.29 -49.92, 35.74 -55.29, 43.75 -65" stroke="#1e1e1e" stroke-width="1" fill="none"></path></g></g><mask></mask><g transform="translate(607.427862190906 97.04588008325777) rotate(0 55.0244140625 11.5)"><text x="0" y="18.400390625" font-family="Helvetica, Segoe UI Emoji" font-size="20px" fill="#1e1e1e" text-anchor="start" style="white-space: pre;" direction="ltr" dominant-baseline="alphabetic">Parent class</text></g><g transform="translate(399.427862190906 407.04588008325777) rotate(0 20.56640625 11.5)"><text x="0" y="18.400390625" font-family="Helvetica, Segoe UI Emoji" font-size="20px" fill="#1e1e1e" text-anchor="start" style="white-space: pre;" direction="ltr" dominant-baseline="alphabetic">child</text></g><g transform="translate(397.427862190906 454.04588008325777) rotate(0 32.7978515625 11.5)"><text x="0" y="18.400390625" font-family="Helvetica, Segoe UI Emoji" font-size="20px" fill="#1e1e1e" text-anchor="start" style="white-space: pre;" direction="ltr" dominant-baseline="alphabetic">derived</text></g><g transform="translate(609.427862190906 144.04588008325777) rotate(0 24.462890625 11.5)"><text x="0" y="18.400390625" font-family="Helvetica, Segoe UI Emoji" font-size="20px" fill="#1e1e1e" text-anchor="start" style="white-space: pre;" direction="ltr" dominant-baseline="alphabetic">base </text></g><g transform="translate(612.427862190906 193.04588008325777) rotate(0 25.0146484375 11.5)"><text x="0" y="18.400390625" font-family="Helvetica, Segoe UI Emoji" font-size="20px" fill="#1e1e1e" text-anchor="start" style="white-space: pre;" direction="ltr" dominant-baseline="alphabetic">super</text></g><g transform="translate(400.427862190906 495.04588008325777) rotate(0 25.0146484375 11.5)"><text x="0" y="18.400390625" font-family="Helvetica, Segoe UI Emoji" font-size="20px" fill="#1e1e1e" text-anchor="start" style="white-space: pre;" direction="ltr" dominant-baseline="alphabetic">super</text></g><g stroke-linecap="round" transform="translate(540.5731134767886 1042.8650830053311) rotate(0 79.0408935546875 85.32703399658203)"><path d="M114.37 8.84 C124.02 12.44, 133.85 22.12, 140.71 30.96 C147.57 39.79, 152.76 50.73, 155.54 61.86 C158.32 72.98, 159.15 86.09, 157.37 97.72 C155.59 109.36, 150.52 121.75, 144.86 131.67 C139.2 141.59, 132.32 150.87, 123.41 157.23 C114.49 163.59, 101.95 168.04, 91.39 169.81 C80.83 171.58, 70.43 170.87, 60.05 167.85 C49.67 164.82, 37.73 159, 29.12 151.66 C20.51 144.33, 13.34 133.92, 8.4 123.85 C3.45 113.78, -0.07 102.79, -0.54 91.23 C-1 79.67, 1.83 65.43, 5.59 54.49 C9.35 43.54, 14.51 33.8, 22.05 25.56 C29.58 17.32, 40.87 9.35, 50.81 5.05 C60.74 0.75, 70.63 -1.14, 81.65 -0.24 C92.67 0.67, 110.49 8.12, 116.92 10.49 C123.35 12.86, 120.74 12.78, 120.23 14 M46.98 6.64 C55.98 0.92, 67.98 -0.21, 78.42 0.06 C88.86 0.33, 99.94 3.47, 109.65 8.26 C119.35 13.04, 129.39 20.41, 136.67 28.78 C143.95 37.14, 149.65 47.94, 153.32 58.47 C156.99 69.01, 159.37 80.65, 158.71 91.99 C158.05 103.32, 154.81 116.06, 149.37 126.49 C143.93 136.92, 134.77 147.47, 126.05 154.57 C117.34 161.68, 107.54 166.89, 97.09 169.12 C86.64 171.35, 74.03 170.29, 63.38 167.94 C52.72 165.6, 42.1 161.45, 33.16 155.05 C24.21 148.65, 15.22 139.55, 9.69 129.54 C4.17 119.53, 1.14 106.66, 0.01 94.99 C-1.12 83.32, -0.14 70.42, 2.9 59.54 C5.94 48.66, 11.27 38.43, 18.26 29.72 C25.24 21, 40.04 10.49, 44.82 7.25 C49.59 4.01, 46.23 9.08, 46.91 10.3" stroke="none" stroke-width="0" fill="#b2f2bb"></path><path d="M73.24 0.4 C83.37 -1.97, 95.95 0.17, 105.93 3.84 C115.91 7.5, 125.42 14.22, 133.1 22.38 C140.77 30.53, 147.7 41.83, 151.98 52.76 C156.25 63.69, 159.13 76.34, 158.77 87.99 C158.41 99.63, 154.55 112.24, 149.79 122.61 C145.02 132.98, 138.1 142.84, 130.18 150.22 C122.26 157.61, 112.38 163.54, 102.28 166.94 C92.18 170.34, 80.22 172.14, 69.57 170.65 C58.92 169.16, 47.74 163.96, 38.4 157.99 C29.05 152.03, 19.62 144.45, 13.53 134.88 C7.43 125.3, 3.73 112.14, 1.82 100.56 C-0.1 88.98, -0.51 76.44, 2.03 65.37 C4.56 54.31, 10.63 43.45, 17.02 34.17 C23.41 24.9, 29.81 15.44, 40.34 9.72 C50.88 4, 72.45 1.13, 80.24 -0.15 C88.03 -1.42, 87.29 0.49, 87.08 2.09 M107.53 5.6 C117.23 8.49, 126.76 17.04, 134.19 25.36 C141.62 33.67, 148.39 44.55, 152.12 55.5 C155.84 66.44, 157.13 79.62, 156.52 91.04 C155.92 102.45, 152.95 113.95, 148.47 123.99 C143.99 134.04, 137.76 144.02, 129.66 151.3 C121.56 158.57, 110.49 164.5, 99.86 167.65 C89.23 170.8, 76.62 171.99, 65.89 170.18 C55.16 168.37, 44.14 163.48, 35.46 156.78 C26.77 150.08, 19.63 139.87, 13.78 129.98 C7.93 120.09, 2 108.6, 0.36 97.42 C-1.28 86.25, 0.86 73.78, 3.93 62.94 C7.01 52.11, 12.2 41.15, 18.79 32.41 C25.38 23.68, 33.96 15.82, 43.48 10.54 C53 5.26, 65.03 1.61, 75.92 0.76 C86.81 -0.1, 103.77 4.14, 108.84 5.42 C113.9 6.69, 107.2 7.25, 106.32 8.42" stroke="#1e1e1e" stroke-width="1" fill="none"></path></g><g transform="translate(590.2558817704125 1116.856792644395) rotate(0 29.4677734375 11.5)"><text x="29.4677734375" y="18.400390625" font-family="Helvetica, Segoe UI Emoji" font-size="20px" fill="#1e1e1e" text-anchor="middle" style="white-space: pre;" direction="ltr" dominant-baseline="alphabetic">dada ji</text></g><g transform="translate(644.8723078127261 1220.881654050253) rotate(0 32.236328125 11.5)"><text x="0" y="18.400390625" font-family="Helvetica, Segoe UI Emoji" font-size="20px" fill="#1e1e1e" text-anchor="start" style="white-space: pre;" direction="ltr" dominant-baseline="alphabetic">x dollar</text></g><g stroke-linecap="round" transform="translate(342.8518915529605 1260.9782421850186) rotate(0 73.97740173339844 72.88081359863281)"><path d="M53.51 3.14 C62.83 -0.95, 74.67 -0.85, 85.04 0.62 C95.41 2.08, 107.02 5.73, 115.74 11.92 C124.45 18.11, 131.98 28.26, 137.33 37.73 C142.68 47.21, 146.91 58.51, 147.85 68.75 C148.8 78.98, 146.82 89.54, 142.99 99.15 C139.16 108.76, 132.65 119.08, 124.86 126.41 C117.07 133.74, 106.68 140.1, 96.27 143.12 C85.85 146.15, 73.08 146.43, 62.39 144.57 C51.71 142.71, 41 137.88, 32.14 131.95 C23.28 126.03, 14.67 117.99, 9.23 109.03 C3.8 100.07, 0.31 88.69, -0.49 78.21 C-1.28 67.73, 0.5 56, 4.46 46.16 C8.42 36.32, 14.61 26.6, 23.28 19.19 C31.95 11.78, 50.43 4.23, 56.5 1.69 C62.58 -0.86, 59.63 2.63, 59.72 3.94 M86.86 1.72 C97.08 2.13, 110.22 6.87, 119.09 13.24 C127.97 19.61, 135.29 30.48, 140.12 39.93 C144.94 49.39, 147.85 59.35, 148.05 69.98 C148.25 80.62, 145.53 93.97, 141.32 103.75 C137.12 113.52, 131.12 122.26, 122.81 128.63 C114.5 135, 101.88 139.46, 91.47 141.99 C81.07 144.51, 70.72 145.48, 60.39 143.8 C50.05 142.13, 38.03 138.27, 29.46 131.94 C20.9 125.61, 13.69 115.22, 9 105.83 C4.31 96.43, 1.69 85.93, 1.34 75.58 C0.98 65.23, 2.5 53.56, 6.87 43.73 C11.25 33.9, 19.37 23.27, 27.57 16.61 C35.77 9.95, 45.79 6.11, 56.07 3.78 C66.36 1.46, 83.96 2.98, 89.29 2.66 C94.62 2.34, 88.39 0.68, 88.05 1.86" stroke="none" stroke-width="0" fill="#a5d8ff"></path><path d="M57.43 1.42 C67.25 -1.52, 81.04 0.29, 91.63 2.86 C102.23 5.44, 112.94 10.2, 121.01 16.86 C129.09 23.53, 135.71 33.49, 140.09 42.85 C144.47 52.21, 147.27 62.52, 147.27 73.03 C147.27 83.55, 144.65 96.41, 140.08 105.95 C135.51 115.49, 128.22 123.83, 119.86 130.28 C111.5 136.74, 100.37 142.51, 89.92 144.66 C79.47 146.81, 67.6 145.87, 57.16 143.19 C46.72 140.51, 35.82 135, 27.31 128.58 C18.8 122.16, 10.56 114.03, 6.1 104.67 C1.63 95.31, 0.12 83.28, 0.53 72.42 C0.94 61.56, 3.77 48.98, 8.54 39.51 C13.31 30.04, 19.4 22.11, 29.14 15.61 C38.87 9.11, 59.6 2.9, 66.96 0.5 C74.32 -1.89, 73.12 0.01, 73.29 1.24 M37.7 9.46 C45.81 3.72, 58.65 1.08, 69.71 0.4 C80.77 -0.27, 94.29 1.56, 104.08 5.41 C113.87 9.27, 121.58 15.31, 128.45 23.52 C135.31 31.72, 142.22 44.23, 145.25 54.65 C148.28 65.07, 148.52 75.98, 146.61 86.04 C144.7 96.11, 140.05 106.71, 133.8 115.04 C127.55 123.36, 118.71 130.97, 109.13 135.98 C99.54 140.98, 86.77 144.58, 76.29 145.05 C65.82 145.51, 55.84 142.78, 46.27 138.77 C36.7 134.76, 26.02 128.91, 18.87 121.01 C11.72 113.12, 6.47 101.53, 3.36 91.4 C0.26 81.26, -1.44 70.46, 0.23 60.23 C1.91 50, 6.94 38.41, 13.43 30.03 C19.91 21.65, 34.86 13.25, 39.14 9.93 C43.42 6.6, 38.49 9.07, 39.13 10.11" stroke="#1e1e1e" stroke-width="1" fill="none"></path></g><g transform="translate(387.55159742861144 1322.3245382696655) rotate(0 29.4677734375 11.5)"><text x="29.4677734375" y="18.400390625" font-family="Helvetica, Segoe UI Emoji" font-size="20px" fill="#1e1e1e" text-anchor="middle" style="white-space: pre;" direction="ltr" dominant-baseline="alphabetic">papa ji</text></g><g transform="translate(487.0962458010074 1379.7911389135343) rotate(0 5 11.5)"><text x="0" y="18.400390625" font-family="Helvetica, Segoe UI Emoji" font-size="20px" fill="#1e1e1e" text-anchor="start" style="white-space: pre;" direction="ltr" dominant-baseline="alphabetic">x</text></g><g stroke-linecap="round"><g transform="translate(484.2196716279359 1271.4032655612132) rotate(0 35.017497043866456 -37.692675500021096)"><path d="M-0.51 -0.89 C11.15 -13.51, 58.29 -62.11, 70.17 -74.67 M1.43 1.26 C12.93 -11.19, 57.8 -63.64, 69.29 -76.41" stroke="#1e1e1e" stroke-width="1" fill="none"></path></g><g transform="translate(484.2196716279359 1271.4032655612132) rotate(0 35.017497043866456 -37.692675500021096)"><path d="M60.25 -53.1 C61.43 -60.24, 66.98 -66.67, 69.29 -76.41 M60.25 -53.1 C61.54 -58.26, 63.53 -63.52, 69.29 -76.41" stroke="#1e1e1e" stroke-width="1" fill="none"></path></g><g transform="translate(484.2196716279359 1271.4032655612132) rotate(0 35.017497043866456 -37.692675500021096)"><path d="M47.38 -64.37 C52.75 -67.87, 62.38 -70.73, 69.29 -76.41 M47.38 -64.37 C51.6 -66.84, 56.53 -69.53, 69.29 -76.41" stroke="#1e1e1e" stroke-width="1" fill="none"></path></g></g><mask></mask><g transform="translate(504.37670234397615 1379.1947949193936) rotate(0 16.396484375 11.5)"><text x="0" y="18.400390625" font-family="Helvetica, Segoe UI Emoji" font-size="20px" fill="#1e1e1e" text-anchor="start" style="white-space: pre;" direction="ltr" dominant-baseline="alphabetic">+ y </text></g><g stroke-linecap="round" transform="translate(153.68978217796052 1396.8218701147061) rotate(0 54.844512939453125 42.05706787109375)"><path d="M53.33 0.1 C62.05 -0.8, 72.96 1.15, 80.87 4.65 C88.78 8.16, 95.88 15.15, 100.77 21.11 C105.67 27.08, 109.83 33.45, 110.26 40.46 C110.69 47.47, 107.72 57.05, 103.34 63.16 C98.95 69.27, 91.83 73.7, 83.94 77.1 C76.05 80.5, 65.22 83.28, 55.99 83.54 C46.76 83.81, 36.48 81.86, 28.56 78.7 C20.65 75.54, 13.1 70.52, 8.49 64.59 C3.89 58.66, 1.28 50.32, 0.95 43.13 C0.62 35.94, 2.14 27.5, 6.52 21.46 C10.9 15.43, 17.5 10.39, 27.23 6.91 C36.96 3.44, 56.98 1.1, 64.89 0.62 C72.79 0.14, 74.81 3.36, 74.66 4.06 M31.66 2.94 C39.46 -0.27, 52.9 -0.72, 62.04 -0.03 C71.19 0.65, 79.44 3.03, 86.5 7.04 C93.57 11.05, 100.74 17.4, 104.41 24.05 C108.09 30.69, 109.45 39.81, 108.57 46.93 C107.68 54.04, 104.62 61.05, 99.11 66.74 C93.59 72.42, 83.93 78.12, 75.46 81.03 C66.99 83.94, 56.94 85.16, 48.27 84.19 C39.6 83.21, 30.86 79.43, 23.45 75.18 C16.03 70.93, 7.73 65.16, 3.78 58.69 C-0.16 52.22, -1.43 43.07, -0.24 36.36 C0.94 29.64, 5.5 23.64, 10.89 18.4 C16.28 13.16, 28.34 7.28, 32.12 4.92 C35.89 2.55, 32.79 4.04, 33.54 4.22" stroke="none" stroke-width="0" fill="#ffc9c9"></path><path d="M57.68 0.01 C66.43 -0.15, 77.25 3.09, 84.95 6.92 C92.66 10.76, 99.65 16.91, 103.92 23.04 C108.2 29.17, 111.12 36.7, 110.6 43.7 C110.08 50.7, 106.05 59, 100.8 65.05 C95.55 71.11, 87.1 76.82, 79.11 80 C71.12 83.18, 61.84 84.6, 52.85 84.13 C43.86 83.65, 33.05 80.89, 25.15 77.17 C17.26 73.46, 9.63 68.08, 5.48 61.84 C1.34 55.59, -0.16 46.92, 0.29 39.71 C0.75 32.49, 3.23 24.3, 8.2 18.56 C13.18 12.82, 20.88 8.13, 30.14 5.26 C39.39 2.39, 56.72 1.65, 63.72 1.35 C70.72 1.05, 72 2.86, 72.13 3.44 M29.31 3.03 C37.11 -0.58, 50.73 -0.74, 59.81 -0.03 C68.9 0.68, 76.36 3.27, 83.82 7.28 C91.28 11.3, 100.51 18.01, 104.57 24.08 C108.64 30.15, 108.67 36.92, 108.22 43.71 C107.77 50.51, 106.8 59, 101.87 64.85 C96.94 70.7, 87.18 75.64, 78.64 78.81 C70.1 81.99, 59.73 84, 50.65 83.92 C41.56 83.84, 31.39 82.12, 24.14 78.35 C16.89 74.58, 11.3 67.8, 7.16 61.3 C3.01 54.8, -1.02 46.21, -0.73 39.34 C-0.45 32.46, 3.83 25.71, 8.85 20.05 C13.87 14.39, 25.63 7.89, 29.38 5.39 C33.13 2.88, 30.59 4.4, 31.36 5.03" stroke="#1e1e1e" stroke-width="1" fill="none"></path></g><g transform="translate(189.300243107053 1427.1401000973267) rotate(0 19.453125 11.5)"><text x="19.453125" y="18.400390625" font-family="Helvetica, Segoe UI Emoji" font-size="20px" fill="#1e1e1e" text-anchor="middle" style="white-space: pre;" direction="ltr" dominant-baseline="alphabetic">ham</text></g><g stroke-linecap="round"><g transform="translate(263.21234420692787 1430.1245647588958) rotate(0 43.695858184710545 -24.648326792060402)"><path d="M-0.07 -0.48 C9.01 -4.46, 39.16 -16.19, 53.93 -24.45 C68.69 -32.71, 82.75 -45.91, 88.52 -50.04 M-1.56 -1.78 C7.95 -5.5, 41.29 -14.99, 56.27 -22.87 C71.25 -30.76, 83.43 -44.9, 88.34 -49.11" stroke="#1e1e1e" stroke-width="1" fill="none"></path></g><g transform="translate(263.21234420692787 1430.1245647588958) rotate(0 43.695858184710545 -24.648326792060402)"><path d="M79.31 -30.66 C80.92 -36.57, 84.15 -38.25, 88.34 -49.11 M79.31 -30.66 C81.28 -34.12, 82.55 -39.62, 88.34 -49.11" stroke="#1e1e1e" stroke-width="1" fill="none"></path></g><g transform="translate(263.21234420692787 1430.1245647588958) rotate(0 43.695858184710545 -24.648326792060402)"><path d="M69.57 -40.78 C73.62 -44.08, 79.36 -43.17, 88.34 -49.11 M69.57 -40.78 C73.95 -41.83, 77.55 -44.92, 88.34 -49.11" stroke="#1e1e1e" stroke-width="1" fill="none"></path></g></g><mask></mask><g transform="translate(248.87230781272615 1489.881654050253) rotate(0 26.6796875 11.5)"><text x="0" y="18.400390625" font-family="Helvetica, Segoe UI Emoji" font-size="20px" fill="#1e1e1e" text-anchor="start" style="white-space: pre;" direction="ltr" dominant-baseline="alphabetic">x+y+z</text></g></svg>